<svg width="18" height="17" viewBox="3 0 18 17" fill="none" xmlns="http://www.w3.org/2000/svg">
    <g id="icon/toggle/star_half_24px">
<path id="icon/toggle/star_half_24px_2" fill-rule="evenodd" clip-rule="evenodd" d="M14.5749 4.56612C14.7195 4.90691 15.0406 5.13989 15.4095 5.17169L19.6462 5.53703C20.5264 5.61293 20.883 6.70947 20.2157 7.28856L17.0047 10.0754C16.725 10.3182 16.6023 10.6957 16.686 11.0565L17.6457 15.1957C17.8454 16.0567 16.9116 16.7344 16.1548 16.2777L12.5167 14.0819C12.1989 13.8901 11.8011 13.8901 11.4833 14.0819L7.849 16.2754C7.09168 16.7325 6.15745 16.0535 6.35841 15.192L7.32287 11.0578C7.40721 10.6963 7.28436 10.3178 7.00379 10.0748L3.79139 7.29189C3.1228 6.71268 3.4802 5.61442 4.36163 5.53964L8.58914 5.18098C8.95871 5.14962 9.28058 4.91629 9.42532 4.57479L11.08 0.670731C11.4245 -0.142058 12.5763 -0.14237 12.9212 0.670232L14.5749 4.56612ZM13.5238 6.20017C13.1868 5.40392 12 5.64474 12 6.50939V11.3361C12 11.6861 12.183 12.0107 12.4825 12.1918L13.7386 12.9515C14.496 13.4095 15.4313 12.7302 15.2299 11.8683L14.9073 10.4875C14.8228 10.1262 14.9455 9.74779 15.2258 9.50463L16.3061 8.56752C16.9733 7.98868 16.6173 6.89223 15.7372 6.81588L14.1858 6.68128C13.8931 6.65588 13.6384 6.47076 13.5238 6.20017Z" fill="#FFFF00"/>
</g>
</svg>
